<?xml version="1.0" standalone="no"?>
<!DOCTYPE svg PUBLIC "-//W3C//DTD SVG 20010904//EN"
 "http://www.w3.org/TR/2001/REC-SVG-20010904/DTD/svg10.dtd">
<svg version="1.0" xmlns="http://www.w3.org/2000/svg"
 width="96.000000pt" height="96.000000pt" viewBox="0 0 96.000000 96.000000"
 preserveAspectRatio="xMidYMid meet">
<metadata>
Created by potrace 1.11, written by Peter Selinger 2001-2013
</metadata>
<g transform="translate(0.000000,96.000000) scale(0.100000,-0.100000)"
fill="#000000" stroke="none">
<path d="M164 863 c3 -10 12 -43 20 -73 7 -30 41 -154 75 -276 57 -206 61
-227 61 -327 l0 -107 160 0 160 0 0 106 c0 100 4 121 65 344 36 131 68 249 71
264 2 14 9 37 14 51 6 15 10 28 10 31 0 2 -144 4 -321 4 -300 0 -320 -1 -315
-17z"/>
</g>
</svg>
